<?xml version="1.0" standalone="no"?><!DOCTYPE svg PUBLIC "-//W3C//DTD SVG 1.1//EN" "http://www.w3.org/Graphics/SVG/1.1/DTD/svg11.dtd"><svg t="1740206032499" class="icon" viewBox="0 0 1024 1024" version="1.1" xmlns="http://www.w3.org/2000/svg" p-id="1494" xmlns:xlink="http://www.w3.org/1999/xlink" width="200" height="200"><path d="M858.56 960c26.88 0 51.84-16 75.2-48 5.76-8.32 11.52-17.6 16.96-27.52 2.56-4.8 4.8-9.28 6.4-12.8 1.92-4.16 2.88-8.64 2.88-13.12v-470.4c0-2.24-0.32-4.16-0.64-6.4a20.352 20.352 0 0 0-1.92-5.76 24.224 24.224 0 0 0-2.88-5.76l-3.84-4.8-4.8-3.84a24.224 24.224 0 0 0-5.76-2.88 20.352 20.352 0 0 0-5.76-1.92c-2.24-0.32-4.16-0.64-6.4-0.64s-4.16 0.32-6.4 0.64c-1.92 0.32-3.84 0.96-5.76 1.92-1.92 0.64-3.84 1.6-5.76 2.88l-4.8 3.84c-1.28 1.6-2.88 3.2-3.84 4.8-1.28 1.92-2.24 3.84-2.88 5.76-0.96 1.92-1.6 3.84-1.92 5.76-0.32 2.24-0.64 4.16-0.64 6.4V851.2c-0.64 0.96-0.96 1.92-1.6 2.88-4.16 7.68-8.32 14.4-12.8 20.48-5.44 7.68-10.56 13.44-15.68 17.28-3.52 2.88-6.08 4.16-7.36 4.16H165.44c-10.24 0-19.2-3.52-26.56-10.88-7.36-7.36-10.88-16.32-10.88-26.56V165.44c0-10.24 3.52-19.2 10.88-26.56 7.36-7.36 16.32-10.88 26.56-10.88h280c2.24 0 4.16-0.32 6.4-0.64 1.92-0.32 3.84-0.96 5.76-1.92 1.92-0.64 3.84-1.6 5.76-2.88l4.8-3.84 3.84-4.8c1.28-1.92 2.24-3.84 2.88-5.76 0.96-1.92 1.6-3.84 1.92-5.76 0.32-2.24 0.64-4.16 0.64-6.4s-0.32-4.16-0.64-6.4a20.352 20.352 0 0 0-1.92-5.76 24.224 24.224 0 0 0-2.88-5.76l-3.84-4.8-4.8-3.84a24.224 24.224 0 0 0-5.76-2.88 20.352 20.352 0 0 0-5.76-1.92c-2.24-0.32-4.16-0.64-6.4-0.64H165.44c-13.76 0-26.88 2.56-39.36 8-12.16 5.12-23.04 12.48-32.32 21.76-9.28 9.28-16.64 20.16-21.76 32.32-5.44 12.48-8 25.6-8 39.36v693.12c0 13.76 2.56 26.88 8 39.36 5.12 12.16 12.48 23.04 21.76 32.32 9.28 9.28 20.16 16.64 32.32 21.76 12.48 5.44 25.6 8 39.36 8h693.12z" fill="#333333" p-id="1495"></path><path d="M287.872 245.344c12.48-5.44 25.6-8 39.36-8 13.76 0 26.88 2.56 39.36 8 12.16 5.12 22.72 12.48 32 21.76 9.6 9.28 16.64 20.16 21.76 32.32 5.44 12.48 8 25.6 8 39.36 0 13.76-2.56 26.88-8 39.36-5.12 12.16-12.48 22.72-21.76 32-9.28 9.28-19.84 16.64-32 21.76-12.48 5.44-25.6 8-39.36 8-13.76 0-26.88-2.56-39.36-8-12.16-5.12-23.04-12.16-32.32-21.76-9.28-9.28-16.64-19.84-21.76-32-5.44-12.48-8-25.6-8-39.36 0-13.76 2.56-26.88 8-39.36 5.12-12.16 12.48-23.04 21.76-32.32 9.28-9.28 20.16-16.64 32.32-21.76zM361.92 927.936h512.32c37.44 0 59.2-42.24 37.76-72.64l-202.56-290.88c-18.24-25.92-56.32-26.56-74.88-1.28l-272.64 364.8z" fill="#333333" p-id="1496"></path><path d="M735.68 546.176a76.48 76.48 0 0 0-28.48-24.96q-16.32-8.16-34.56-8.64c-12.16-0.32-24 2.24-34.88 7.68-11.52 5.44-21.44 13.44-29.12 24l-272.32 364.48a30.4 30.4 0 0 0-3.2 5.44c-0.96 1.92-1.6 3.84-2.24 5.76-0.64 2.24-0.96 4.16-0.96 6.4 0 1.92 0 4.16 0.32 6.08 0.32 2.24 0.96 4.16 1.6 6.08 0.64 2.24 1.6 3.84 2.56 5.76s2.24 3.52 3.84 5.12c1.28 1.6 2.88 2.88 4.48 4.16 2.88 2.24 5.76 3.84 8.96 4.8 3.52 0.96 6.72 1.6 10.24 1.6h512.32a77.952 77.952 0 0 0 78.08-81.92c-0.64-15.04-5.44-28.8-14.08-41.28l-202.56-290.56z m-64 30.4c4.8 0 8.64 2.24 11.52 6.08l202.56 291.2c3.2 4.48 3.52 9.28 0.96 14.4-2.56 5.12-6.72 7.68-12.48 7.68H425.92l234.56-313.92c2.56-3.84 6.4-5.44 11.2-5.44z" fill="#333333" p-id="1497"></path><path d="M143.488 893.44h361.6c26.56 0 41.92-30.4 26.88-52.8l-143.04-210.24c-12.8-18.88-39.68-19.2-53.12-0.96l-192.32 264z" fill="#333333" p-id="1498"></path><path d="M558.528 822.72c7.04 10.56 10.88 21.76 11.2 34.24 0.64 11.52-1.92 22.72-7.04 32.96-5.44 10.56-12.8 18.88-22.72 25.28-10.56 6.72-22.08 10.24-34.88 10.24h-361.6a33.888 33.888 0 0 1-18.88-6.08c-3.52-2.56-6.08-5.76-8.32-9.28a29.888 29.888 0 0 1-3.84-24c0.96-4.16 2.56-8 5.12-11.52l192.64-264c6.4-8.64 14.08-15.36 23.68-20.16a65.44 65.44 0 0 1 58.24 0.96c9.28 5.12 17.28 12.16 23.36 21.12l143.04 210.24z m-196.8-174.4l-155.2 213.12h298.56c0.32 0 0.32-0.32 0.64-0.64 0.32-0.64 0.32-1.6-0.32-2.24l-143.04-210.24c0-0.32-0.32-0.32-0.32-0.32s-0.32 0-0.32 0.32z" fill="#333333" p-id="1499"></path><path d="M956.16 211.52a13.44 13.44 0 0 0-2.88-4.48c-4.8-6.08-11.2-13.76-19.52-22.72-16-17.28-33.28-33.28-51.2-48-25.92-20.8-51.84-37.12-78.08-48.96C770.56 71.68 736.96 64 704 64 671.04 64 637.44 71.68 603.52 87.36c-26.24 11.84-52.16 28.16-78.08 48.96-17.92 14.72-35.2 30.72-51.2 48-8.32 8.96-14.72 16.64-19.52 22.72a13.44 13.44 0 0 0-2.88 4.48c-0.96 1.6-1.6 3.2-2.24 4.8-0.32 1.6-0.96 3.2-1.28 5.12-0.32 1.6-0.32 3.2-0.32 5.12 0 1.6 0 3.52 0.32 5.12 0.32 1.92 0.96 3.52 1.28 5.12 0.64 1.6 1.28 3.2 2.24 4.8 0.64 1.6 1.6 2.88 2.88 4.48 4.48 6.08 11.2 13.76 19.2 22.72 16.32 17.28 33.28 33.6 51.52 48 25.6 20.8 51.84 37.12 78.08 49.28 33.92 15.68 67.52 23.36 100.48 23.36 32.96 0 66.56-7.68 100.48-23.36 26.24-12.16 52.48-28.48 78.08-49.28 18.24-14.4 35.2-30.72 51.52-48 8-8.96 14.72-16.64 19.2-22.72a17.6 17.6 0 0 0 2.88-4.48c0.96-1.6 1.6-3.2 2.24-4.8 0.32-1.6 0.96-3.2 1.28-5.12 0.32-1.6 0.32-3.52 0.32-5.12 0-1.92 0-3.52-0.32-5.12-0.32-1.92-0.96-3.52-1.28-5.12-0.64-1.6-1.28-3.2-2.24-4.8zM630.08 145.6C655.68 133.76 680.32 128 704 128s48.32 5.76 73.92 17.6c21.44 9.6 42.88 23.36 64.32 40.64 15.36 12.16 29.76 25.6 43.52 40.32-13.76 14.72-28.16 28.16-43.52 40.64-21.44 17.28-42.88 31.04-64.32 40.64-25.6 11.84-50.24 17.6-73.92 17.6s-48.32-5.76-73.92-17.6c-21.44-9.6-42.88-23.36-64.32-40.64-15.36-12.48-29.76-25.92-43.52-40.64 13.76-14.72 28.16-28.16 43.52-40.32 21.44-17.28 42.88-31.04 64.32-40.64z" fill="#333333" p-id="1500"></path><path d="M616 226.656c0-11.84 2.24-23.36 7.04-34.24 4.16-10.56 10.56-19.84 18.56-28.16 8.32-8 17.6-14.4 28.16-18.56 10.88-4.8 22.4-7.04 34.24-7.04 11.84 0 23.36 2.24 34.24 7.04 10.56 4.16 19.84 10.56 28.16 18.56 8 8.32 14.4 17.6 18.56 28.16 4.8 10.88 7.04 22.4 7.04 34.24 0 11.84-2.24 23.36-7.04 34.24-4.16 10.56-10.56 19.84-18.56 28.16-8.32 8-17.6 14.4-28.16 18.56-10.88 4.8-22.4 7.04-34.24 7.04-11.84 0-23.36-2.24-34.24-7.04-10.56-4.16-19.84-10.56-28.16-18.56-8-8.32-14.4-17.6-18.56-28.16-4.8-10.88-7.04-22.4-7.04-34.24z" fill="#333333" p-id="1501"></path></svg>